<?xml version="1.0" encoding="UTF-8"?>
<!-- Generator: Adobe Illustrator 24.3.0, SVG Export Plug-In . SVG Version: 6.00 Build 0)  -->
<svg version="1.1" id="Capa_4" xmlns="http://www.w3.org/2000/svg" xmlns:xlink="http://www.w3.org/1999/xlink" x="0px" y="0px" viewBox="0 0 219.5 80" style="enable-background:new 0 0 219.5 80;" xml:space="preserve"><script xmlns="" async="false" type="text/javascript" src="moz-extension://5c7d4312-e691-4aa9-94e9-99636ad4dc6c/in-page.js"/>
<style type="text/css">
	.st0{fill:#FFFFFF;}
	.st1{fill-rule:evenodd;clip-rule:evenodd;fill:#FFFFFF;}
</style>
<g>
	<g>
		<g>
			<path class="st0" d="M59,80.1v-0.3c0.8-0.1,0.8-0.2,0.8-1.2l0-4.1h0L57.5,80h-0.3L55,74.6h0l-0.1,2.8c0,0.9,0,1.3,0,1.7     c0,0.5,0.2,0.6,0.9,0.6v0.3h-2.5v-0.3c0.6-0.1,0.8-0.2,0.8-0.6c0.1-0.3,0.1-0.8,0.2-1.9l0.2-2.1c0.1-1.2,0-1.3-0.9-1.4v-0.3h2     l2.1,4.7l2.2-4.7h2v0.3C61,73.8,61,73.8,61,74.8l0.1,3.8c0,1,0.1,1.1,0.9,1.2v0.3H59z"/>
			<path class="st0" d="M68.4,80.1v-0.3c0.6-0.1,0.7-0.2,0.5-0.6c-0.1-0.3-0.3-0.8-0.5-1.3h-2.1c-0.1,0.4-0.3,0.8-0.4,1.2     c-0.2,0.6-0.1,0.7,0.6,0.8v0.3h-2.3v-0.3c0.7-0.1,0.8-0.2,1.2-1.1l2.1-5.3l0.5-0.1c0.7,1.8,1.3,3.7,2,5.4c0.3,0.9,0.5,1,1.1,1.1     v0.3H68.4z M67.4,74.9L67.4,74.9c-0.3,0.8-0.6,1.6-0.9,2.4h1.7L67.4,74.9z"/>
			<path class="st0" d="M79.8,80.1c-0.1,0-0.2,0-0.3,0c-1.1-0.1-1.5-0.3-2-1c-0.3-0.5-0.6-1-0.9-1.6c-0.2-0.3-0.4-0.4-0.8-0.4h-0.2     v1.6c0,0.8,0.1,0.9,0.9,1v0.3h-3v-0.3c0.8-0.1,0.9-0.2,0.9-1v-4c0-0.8-0.1-0.9-0.9-1v-0.3h2.8c0.8,0,1.4,0.1,1.8,0.4     c0.4,0.3,0.7,0.7,0.7,1.4c0,0.9-0.6,1.4-1.3,1.7c0.2,0.3,0.6,1,0.9,1.5c0.4,0.6,0.6,0.9,0.8,1.1c0.2,0.3,0.4,0.4,0.7,0.5     L79.8,80.1z M76,76.8c0.5,0,0.8-0.1,1.1-0.3c0.4-0.3,0.5-0.7,0.5-1.2c0-1.1-0.7-1.5-1.3-1.5c-0.3,0-0.4,0.1-0.5,0.1     c-0.1,0.1-0.1,0.2-0.1,0.4v2.5H76z"/>
			<path class="st0" d="M82.1,80.1v-0.3c0.8-0.1,0.9-0.1,0.9-1v-4c0-0.9-0.1-0.9-0.9-1v-0.3h3v0.3c-0.8,0.1-0.9,0.1-0.9,1v4     c0,0.9,0.1,0.9,0.9,1v0.3H82.1z"/>
			<path class="st0" d="M91.4,75c-0.2-0.7-0.6-1.4-1.4-1.4c-0.6,0-1.1,0.5-1.1,1.1c0,0.6,0.4,1,1.3,1.4c1,0.5,1.8,1,1.8,2.1     c0,1.1-1,2-2.4,2c-0.4,0-0.7-0.1-1-0.2c-0.3-0.1-0.5-0.2-0.6-0.2c-0.1-0.2-0.2-1.1-0.3-1.7L88,78c0.2,0.6,0.7,1.8,1.8,1.8     c0.7,0,1.1-0.5,1.1-1.1c0-0.7-0.5-1-1.3-1.4c-0.9-0.5-1.8-1-1.8-2.1c0-1.1,0.9-1.9,2.3-1.9c0.6,0,1.1,0.2,1.4,0.3     c0,0.4,0.1,0.8,0.2,1.5L91.4,75z"/>
			<path class="st0" d="M100,75.1c-0.1-0.5-0.2-0.8-0.4-1c-0.2-0.2-0.4-0.3-1.1-0.3H98v4.9c0,0.9,0.1,0.9,1,1v0.3h-3.2v-0.3     c0.9-0.1,1-0.2,1-1v-4.9h-0.5c-0.8,0-1,0.1-1.2,0.3c-0.2,0.2-0.3,0.5-0.4,1h-0.4c0-0.7,0.1-1.4,0.1-2h0.2     c0.2,0.2,0.3,0.3,0.6,0.3h4.1c0.3,0,0.4-0.1,0.6-0.3h0.2c0,0.4,0.1,1.3,0.1,1.9L100,75.1z"/>
			<path class="st0" d="M105.9,80.1v-0.3c0.6-0.1,0.7-0.2,0.5-0.6c-0.1-0.3-0.3-0.8-0.5-1.3h-2.1c-0.1,0.4-0.3,0.8-0.4,1.2     c-0.2,0.6-0.1,0.7,0.6,0.8v0.3h-2.3v-0.3c0.7-0.1,0.8-0.2,1.2-1.1l2.1-5.3l0.5-0.1c0.7,1.8,1.3,3.7,2,5.4c0.3,0.9,0.5,1,1.1,1.1     v0.3H105.9z M105,74.9L105,74.9c-0.3,0.8-0.6,1.6-0.9,2.4h1.7L105,74.9z"/>
			<path class="st0" d="M114.7,75c-0.2-0.7-0.6-1.4-1.4-1.4c-0.6,0-1.1,0.5-1.1,1.1c0,0.6,0.4,1,1.3,1.4c1,0.5,1.8,1,1.8,2.1     c0,1.1-1,2-2.4,2c-0.4,0-0.7-0.1-1-0.2c-0.3-0.1-0.5-0.2-0.6-0.2c-0.1-0.2-0.2-1.1-0.3-1.7l0.4-0.1c0.2,0.6,0.7,1.8,1.8,1.8     c0.7,0,1.1-0.5,1.1-1.1c0-0.7-0.5-1-1.3-1.4c-0.9-0.5-1.8-1-1.8-2.1c0-1.1,0.9-1.9,2.3-1.9c0.6,0,1.1,0.2,1.4,0.3     c0,0.4,0.1,0.8,0.2,1.5L114.7,75z"/>
			<path class="st0" d="M120.9,78h-2.5l0.1-0.7h2.5L120.9,78z"/>
			<path class="st0" d="M130.6,78.3c-0.1,0.5-0.4,1.3-0.6,1.6c-0.3,0.1-1.2,0.3-1.9,0.3c-2.7,0-3.8-1.8-3.8-3.4     c0-2.1,1.6-3.6,4.1-3.6c0.8,0,1.6,0.2,1.9,0.3c0.1,0.6,0.2,1,0.2,1.6l-0.4,0.1c-0.3-1.2-1-1.6-1.9-1.6c-1.6,0-2.4,1.4-2.4,3     c0,1.9,1.1,3.2,2.5,3.2c0.9,0,1.5-0.6,2.1-1.6L130.6,78.3z"/>
			<path class="st0" d="M135,80.1v-0.3c0.6-0.1,0.7-0.2,0.5-0.6c-0.1-0.3-0.3-0.8-0.5-1.3H133c-0.1,0.4-0.3,0.8-0.4,1.2     c-0.2,0.6-0.1,0.7,0.6,0.8v0.3H131v-0.3c0.7-0.1,0.8-0.2,1.2-1.1l2.1-5.3l0.5-0.1c0.7,1.8,1.3,3.7,2,5.4c0.3,0.9,0.5,1,1.1,1.1     v0.3H135z M134.1,74.9L134.1,74.9c-0.3,0.8-0.6,1.6-0.9,2.4h1.7L134.1,74.9z"/>
			<path class="st0" d="M143.6,78.4c-0.1,0.4-0.3,1.4-0.4,1.7h-4.9v-0.3c0.9-0.1,1-0.1,1-1v-4c0-0.9-0.1-0.9-0.9-1v-0.3h3v0.3     c-0.8,0.1-0.9,0.1-0.9,1v4.1c0,0.5,0,0.7,0.2,0.8c0.2,0.1,0.5,0.1,0.8,0.1c0.5,0,0.9-0.1,1.1-0.3c0.2-0.2,0.4-0.5,0.6-1     L143.6,78.4z"/>
			<path class="st0" d="M149.2,78.4c-0.1,0.4-0.3,1.4-0.4,1.7h-4.9v-0.3c0.9-0.1,1-0.1,1-1v-4c0-0.9-0.1-0.9-0.9-1v-0.3h3v0.3     c-0.8,0.1-0.9,0.1-0.9,1v4.1c0,0.5,0,0.7,0.2,0.8c0.2,0.1,0.5,0.1,0.8,0.1c0.5,0,0.9-0.1,1.1-0.3c0.2-0.2,0.4-0.5,0.6-1     L149.2,78.4z"/>
			<path class="st0" d="M153.5,80.1v-0.3c0.6-0.1,0.7-0.2,0.5-0.6c-0.1-0.3-0.3-0.8-0.5-1.3h-2.1c-0.1,0.4-0.3,0.8-0.4,1.2     c-0.2,0.6-0.1,0.7,0.6,0.8v0.3h-2.3v-0.3c0.7-0.1,0.8-0.2,1.2-1.1l2.1-5.3l0.5-0.1c0.7,1.8,1.3,3.7,2,5.4c0.3,0.9,0.5,1,1.1,1.1     v0.3H153.5z M152.6,74.9L152.6,74.9c-0.3,0.8-0.6,1.6-0.9,2.4h1.7L152.6,74.9z"/>
			<path class="st0" d="M160.5,73.2c1.8,0,3.4,1.4,3.4,3.4c0,2.2-1.6,3.6-3.5,3.6c-2,0-3.4-1.5-3.4-3.5     C156.9,74.9,158.2,73.2,160.5,73.2L160.5,73.2z M160.3,73.6c-1.1,0-2,1.1-2,2.9c0,1.8,0.9,3.3,2.2,3.3c1,0,1.9-1,1.9-2.9     C162.5,74.8,161.6,73.6,160.3,73.6L160.3,73.6z"/>
		</g>
		<g>
			<g>
				<path class="st0" d="M33.4,66.5c-0.3,0.9-0.8,2.5-1.1,3.2c-0.5,0.1-2.3,0.5-3.8,0.5c-5.2,0-7.5-3.5-7.5-6.7      c0-4.2,3.2-7.1,7.9-7.1c1.6,0,3.1,0.4,3.6,0.5c0.2,1.1,0.3,2,0.4,3.2l-0.7,0.1c-0.6-2.3-2-3.1-3.8-3.1c-3.1,0-4.8,2.8-4.8,5.8      c0,3.7,2.1,6.2,4.9,6.2c1.8,0,3-1.1,4-3.1L33.4,66.5z"/>
			</g>
			<g>
				<path class="st0" d="M42.6,58.9c2.9,0,5.4,2.2,5.4,5.5c0,3.5-2.5,5.7-5.6,5.7c-3.2,0-5.5-2.4-5.5-5.6      C36.9,61.7,39,58.9,42.6,58.9L42.6,58.9z M42.3,59.6c-1.7,0-3.1,1.7-3.1,4.6c0,2.9,1.4,5.3,3.6,5.3c1.7,0,3.1-1.5,3.1-4.6      C45.8,61.5,44.3,59.6,42.3,59.6L42.3,59.6z"/>
				<path class="st0" d="M59,67.1c-0.1,0.6-0.5,2.3-0.6,2.7h-7.8v-0.5c1.4-0.1,1.6-0.2,1.6-1.6v-6.4c0-1.4-0.1-1.5-1.4-1.6v-0.5h4.8      v0.5c-1.3,0.1-1.4,0.2-1.4,1.6v6.5c0,0.8,0.1,1.1,0.4,1.3c0.3,0.1,0.8,0.2,1.4,0.2c0.8,0,1.4-0.1,1.7-0.5      c0.3-0.3,0.6-0.9,0.9-1.7L59,67.1z"/>
				<path class="st0" d="M69.8,67.2c-0.1,0.7-0.4,2.2-0.6,2.7H61v-0.5c1.4-0.1,1.6-0.2,1.6-1.6v-6.4c0-1.5-0.1-1.5-1.4-1.6v-0.5h7.6      c0,0.3,0.1,1.5,0.2,2.4l-0.6,0.1c-0.1-0.6-0.3-1.1-0.6-1.4c-0.3-0.3-0.7-0.4-1.7-0.4h-1c-0.6,0-0.6,0-0.6,0.6V64h1.3      c1.4,0,1.6-0.1,1.8-1.2h0.6V66h-0.6c-0.2-1.2-0.4-1.3-1.8-1.3h-1.3v2.9c0,0.8,0.1,1.2,0.4,1.4c0.3,0.2,0.9,0.2,1.6,0.2      c1,0,1.6-0.1,1.9-0.5c0.3-0.3,0.6-0.9,0.9-1.6L69.8,67.2z"/>
				<path class="st0" d="M83,65.3c-0.9,0.1-1,0.2-1,1.3V68c0,0.6,0,1.1,0.1,1.6c-1,0.2-2.4,0.6-3.7,0.6c-3.8,0-6.2-2.2-6.2-5.5      c0-3.8,3.1-5.7,6.5-5.7c1.4,0,2.6,0.3,3.2,0.5c0,0.6,0.1,1.5,0.3,2.7l-0.6,0.1c-0.4-1.9-1.7-2.6-3.2-2.6c-2.2,0-3.9,1.8-3.9,4.8      c0,2.4,1.3,5.1,4.2,5.1c0.4,0,0.8-0.1,1.1-0.2c0.3-0.2,0.4-0.4,0.4-1v-1.5c0-1.2-0.1-1.3-1.8-1.4v-0.5H83V65.3z"/>
				<path class="st0" d="M85.4,69.9v-0.5c1.3-0.1,1.4-0.2,1.4-1.6v-6.4c0-1.4-0.1-1.5-1.4-1.6v-0.5h4.7v0.5      c-1.3,0.1-1.4,0.2-1.4,1.6v6.4c0,1.4,0.1,1.5,1.4,1.6v0.5H85.4z"/>
				<path class="st0" d="M98.6,58.9c2.9,0,5.4,2.2,5.4,5.5c0,3.5-2.5,5.7-5.6,5.7c-3.2,0-5.5-2.4-5.5-5.6      C92.8,61.7,94.9,58.9,98.6,58.9L98.6,58.9z M98.2,59.6c-1.7,0-3.1,1.7-3.1,4.6c0,2.9,1.4,5.3,3.6,5.3c1.7,0,3.1-1.5,3.1-4.6      C101.7,61.5,100.2,59.6,98.2,59.6L98.2,59.6z"/>
			</g>
		</g>
		<g>
			<g>
				<path class="st0" d="M119,59.9c-0.4-1.3-1.1-2.7-2.8-2.7c-1.3,0-2.1,0.9-2.1,2.1c0,1.3,0.8,1.9,2.5,2.8c1.9,1,3.5,2,3.5,4.1      c0,2.2-1.9,4-4.8,4c-0.8,0-1.5-0.1-2-0.3c-0.5-0.2-0.9-0.3-1.2-0.4c-0.2-0.5-0.4-2.2-0.6-3.3l0.7-0.2c0.4,1.3,1.5,3.5,3.4,3.5      c1.4,0,2.2-0.9,2.2-2.2c0-1.3-1-2-2.5-2.8c-1.8-0.9-3.5-2-3.5-4.1c0-2.1,1.7-3.8,4.4-3.8c1.2,0,2.2,0.3,2.7,0.5      c0.1,0.7,0.2,1.6,0.4,2.9L119,59.9z"/>
			</g>
			<g>
				<path class="st0" d="M128.1,69.9v-0.5c1-0.1,1.1-0.3,0.9-1c-0.2-0.5-0.5-1.3-0.8-2.1h-3.3c-0.2,0.6-0.4,1.2-0.6,1.9      c-0.3,0.9-0.2,1.1,1,1.2v0.5h-3.6v-0.5c1.1-0.1,1.3-0.3,1.8-1.7l3.4-8.5l0.7-0.2c1.1,2.9,2.1,5.8,3.2,8.7      c0.5,1.5,0.8,1.6,1.8,1.8v0.5H128.1z M126.6,61.6L126.6,61.6c-0.5,1.3-1,2.6-1.4,3.8h2.7L126.6,61.6z"/>
				<path class="st0" d="M146.2,59.7c-0.9,0-1.3,0.3-1.3,1c-0.1,0.5-0.1,1.3-0.1,2.8V70H144l-6.9-8.4h0v3.9c0,1.5,0.1,2.2,0.1,2.7      c0.1,0.8,0.4,1,1.6,1.1v0.5h-4v-0.5c0.9-0.1,1.3-0.3,1.4-1.1c0-0.5,0.1-1.3,0.1-2.8V62c0-1.1,0-1.4-0.3-1.7      c-0.3-0.4-0.7-0.5-1.4-0.6v-0.5h2.8l6.5,7.6h0v-3.3c0-1.5-0.1-2.3-0.1-2.7c-0.1-0.7-0.4-1-1.6-1v-0.5h4V59.7z"/>
			</g>
		</g>
		<g>
			<g>
				<path class="st0" d="M161.6,57.4c-1.5,0.1-1.6,0.3-1.6,2v7c0,2.4-0.3,4.2-1.9,5.6c-0.8,0.7-1.6,1-2.2,1.2l-0.3-0.7      c1.1-0.5,1.7-1.3,1.9-2.5c0.2-1.1,0.2-2.3,0.2-3.9v-6.7c0-1.7-0.2-1.9-1.8-2v-0.7h5.7V57.4z"/>
			</g>
			<g>
				<path class="st0" d="M171,58.9c2.9,0,5.4,2.2,5.4,5.5c0,3.5-2.5,5.7-5.6,5.7c-3.2,0-5.5-2.4-5.5-5.6      C165.2,61.7,167.3,58.9,171,58.9L171,58.9z M170.6,59.6c-1.7,0-3.1,1.7-3.1,4.6c0,2.9,1.4,5.3,3.6,5.3c1.7,0,3.1-1.5,3.1-4.6      C174.1,61.5,172.6,59.6,170.6,59.6L170.6,59.6z"/>
				<path class="st0" d="M185,61.8c-0.3-1-0.9-2.2-2.3-2.2c-1,0-1.7,0.8-1.7,1.7c0,1,0.7,1.6,2.1,2.3c1.6,0.8,2.9,1.7,2.9,3.4      c0,1.8-1.6,3.3-3.9,3.3c-0.6,0-1.2-0.1-1.6-0.2c-0.4-0.1-0.7-0.2-0.9-0.3c-0.1-0.4-0.4-1.8-0.5-2.7l0.6-0.2      c0.3,1,1.2,2.8,2.8,2.8c1.1,0,1.8-0.7,1.8-1.8c0-1.1-0.8-1.7-2-2.3c-1.5-0.8-2.8-1.6-2.8-3.3c0-1.7,1.4-3.1,3.6-3.1      c1,0,1.8,0.3,2.2,0.4c0.1,0.6,0.2,1.3,0.3,2.3L185,61.8z"/>
				<path class="st0" d="M197.3,67.2c-0.1,0.7-0.4,2.2-0.6,2.7h-8.3v-0.5c1.4-0.1,1.6-0.2,1.6-1.6v-6.4c0-1.5-0.1-1.5-1.4-1.6v-0.5      h7.6c0,0.3,0.1,1.5,0.2,2.4l-0.6,0.1c-0.1-0.6-0.3-1.1-0.6-1.4c-0.3-0.3-0.7-0.4-1.7-0.4h-1c-0.6,0-0.6,0-0.6,0.6V64h1.3      c1.4,0,1.6-0.1,1.8-1.2h0.6V66H195c-0.2-1.2-0.4-1.3-1.8-1.3H192v2.9c0,0.8,0.1,1.2,0.4,1.4c0.3,0.2,0.9,0.2,1.6,0.2      c1,0,1.6-0.1,1.9-0.5c0.3-0.3,0.6-0.9,0.9-1.6L197.3,67.2z M195.3,57.6l-3.3,1l-0.2-0.4c0.9-0.6,1.9-1.3,2.8-1.9      c0.3,0.1,0.7,0.8,0.8,1.2L195.3,57.6z"/>
			</g>
		</g>
	</g>
	<g>
		<g>
			<polygon class="st1" points="96.8,5.2 97.2,6.2 98.3,6.2 97.4,6.9 97.7,7.9 96.8,7.3 95.9,7.9 96.3,6.9 95.4,6.2 96.5,6.2    "/>
			<polygon class="st1" points="122.2,5.2 122.5,6.2 123.6,6.2 122.7,6.9 123.1,7.9 122.2,7.3 121.3,7.9 121.6,6.9 120.7,6.2      121.8,6.2    "/>
			<polygon class="st1" points="100.1,2.5 100.4,3.5 101.5,3.5 100.6,4.2 101,5.2 100.1,4.6 99.2,5.2 99.5,4.2 98.7,3.5 99.8,3.5         "/>
			<polygon class="st1" points="100.1,8.9 100.4,9.9 101.5,9.9 100.6,10.6 101,11.6 100.1,11 99.2,11.6 99.5,10.6 98.7,9.9      99.8,9.9    "/>
			<polygon class="st1" points="118.9,8.9 119.3,9.9 120.4,9.9 119.5,10.6 119.8,11.6 118.9,11 118,11.6 118.4,10.6 117.5,9.9      118.6,9.9    "/>
			<polygon class="st1" points="118.9,2.5 119.3,3.5 120.4,3.5 119.5,4.2 119.8,5.2 118.9,4.6 118,5.2 118.4,4.2 117.5,3.5      118.6,3.5    "/>
			<polygon class="st1" points="104.7,1.5 105.1,2.5 106.2,2.5 105.3,3.1 105.6,4.2 104.7,3.5 103.8,4.2 104.2,3.1 103.3,2.5      104.4,2.5    "/>
			<polygon class="st1" points="104.7,10.1 105.1,11.1 106.2,11.1 105.3,11.8 105.6,12.8 104.7,12.2 103.8,12.8 104.2,11.8      103.3,11.1 104.4,11.1    "/>
			<polygon class="st1" points="114.3,10.1 114.6,11.1 115.7,11.1 114.9,11.8 115.2,12.8 114.3,12.2 113.4,12.8 113.8,11.8      112.9,11.1 114,11.1    "/>
			<polygon class="st1" points="114.3,1.5 114.6,2.5 115.8,2.5 114.9,3.1 115.2,4.2 114.3,3.5 113.4,4.2 113.8,3.1 112.9,2.5      114,2.5    "/>
			<polygon class="st1" points="109.5,0.9 109.9,1.9 111,1.9 110.1,2.6 110.4,3.6 109.5,3 108.6,3.6 109,2.6 108.1,1.9 109.2,1.9         "/>
			<polygon class="st1" points="109.5,10.5 109.9,11.5 111,11.5 110.1,12.2 110.4,13.2 109.5,12.6 108.6,13.2 109,12.2 108.1,11.5      109.2,11.5    "/>
		</g>
		<path class="st0" d="M127.7,35.6c-2.7-4.8-7.3-1.1-7.3-1.1c3-0.6,3.8,0.7,3.8,0.7c2.4,2.6-0.3,4.7-0.3,4.7    c-0.7-4.7-4.8-2.7-4.8-2.7c2.9,0,2.2,2.7,2.2,2.7c-7.1-0.1-3.6-11.4-3.6-11.4c3.6-9.6,7.1-9.4,7.1-9.4c2.3,1,2-0.2,2-0.2l0.5-0.4    c0.8,0.3,0.6-1.1,0.6-1.1c-0.9-1.7-3.1-1.2-3.1-1.2c-8.9,1.2-11.6,8.9-11.6,8.9c0.1-6.4-3.5-9.4-3.5-9.4c-3.7,3.4-3.7,9.4-3.7,9.4    c-1.8-7-11-8.8-11-8.8c-2.6-0.7-3.3,0.8-3.3,0.8c-0.8,1,0.6,1.5,0.6,1.5l0.3,0.2c-0.1,1.2,2,0.2,2,0.2c7.8,3.4,7.9,15.3,7.9,15.3    c-0.1,5.8-4.6,5.5-4.6,5.5c-0.5-2.7,2.1-2.8,2.1-2.8c-4.7-1.8-4.6,2.7-4.6,2.7c-1.1-0.6-1.3-1.9-1.3-1.9c-0.4-4.3,4.6-3.4,4.6-3.4    c-3.2-2.7-6.4-0.1-6.4-0.1c-3.8,4.9,3.2,7.5,3.2,7.5c6,6.6,11.3-3,11.3-3c-0.4,1.6-0.5,4.6-0.5,4.6c-0.9,7.7,3.4,7.5,3.4,7.5    c5.4-0.7,2.8-12.2,2.8-12.2c1.1,3.1,3.7,4.3,3.7,4.3c5.3,2.8,7.6-1.4,7.6-1.4C129.6,40,127.7,35.6,127.7,35.6z M104.9,35.8    c-1.4,7.8-5.5,5.7-5.5,5.7c7.2-2,4.7-11.4,4.7-11.4c-1.3-7-4.7-9.8-4.7-9.8c1.9-0.6,6,6,6,6C104.5,27.6,104.9,35.8,104.9,35.8z     M109.5,20.4l1.9,5.3l-1.8,2.9l-1.6-2.7L109.5,20.4z M106.9,36.7l0.1-5.2l0.4-1.8l1.3,2.1L106.9,36.7z M109.5,48.4    c-3.1-5.9,0-13.3,0-13.3C112.6,43.8,109.5,48.4,109.5,48.4z M112.2,36.4l-1.8-4.6l1.2-2.1l0.6,2.1L112.2,36.4z M114.1,35.8    c0,0,0.4-8.1-0.5-9.4c0,0,4.1-6.6,6-6c0,0-3.4,2.7-4.7,9.8c0,0-2.5,9.3,4.7,11.4C119.6,41.5,115.5,43.6,114.1,35.8z"/>
	</g>
</g>
</svg>